<svg enable-background="new 0 0 130.127 149.869" height="80.869" viewBox="0 0 130.127 149.869" width="70.127" xmlns="http://www.w3.org/2000/svg"><path d="m54.466 96.586 16-17c.376-.375.884-.586 1.415-.586l40.063 14.498c7.913-6.037 18.052-16.184 18.052-19.498v-68c0-3.314-2.686-6-6-6h-90.37c-3.313 0-17.948 14.355-20.016 18.789l15.016 5.211c0 3.314 2.686 6 6 6h57.369c1.105 0 2 .895 2 2v16.998c0 1.105-.897 2.001-2.002 2l-30.824-.049c-4.855.406-18.227 13.861-19.354 14.988l-24.182 24.083c-1.124 1.125-1.755 2.65-1.756 4.24l-.009 33.739c-.001 3.314 2.686 6.002 6 6.002l90.228 14.031c9.899-6.512 18.031-14.717 18.031-18.031v-24c0-3.314-2.686-6-6-6h-68.247c-1.782-.001-2.674-2.155-1.414-3.415z" fill="#00e6b3"/><g fill="#142664"><path d="m115.273 17.839s1.481-1.246 3.459-2.966c.993-.948 2.188-1.991 3.307-3.101.623-.636 1.288-1.327 1.835-2.031 2.298-2.626 4.142-4.833 4.142-4.833.454-.42.22-1.271-.342-1.865-.638-.661-1.462-.755-1.874-.389 0 0-2.222 1.869-4.78 4.171-.698.569-1.321 1.205-1.986 1.896-1.119 1.11-2.163 2.288-3.081 3.303-1.751 1.922-2.971 3.492-2.971 3.492-.455.42-.22 1.271.342 1.865.713.731 1.612.891 1.949.458z"/><path d="m115.229 116.236s1.401-1.165 3.269-2.776c.936-.891 2.064-1.867 3.118-2.912.586-.599 1.211-1.25 1.721-1.916 2.153-2.481 3.877-4.568 3.877-4.568.429-.394.176-1.227-.387-1.82-.639-.661-1.441-.776-1.83-.433 0 0-2.101 1.748-4.516 3.907-.661.531-1.247 1.131-1.872 1.781-1.053 1.044-2.032 2.157-2.892 3.115-1.642 1.814-2.781 3.302-2.781 3.302-.429.394-.176 1.227.387 1.82.714.728 1.592.91 1.906.5z"/><path d="m39.598 110.454 15-15c.375-.375.884-.586 1.414-.586h52.114c3.314 0 6-2.686 6-6v-67c0-3.314-2.686-6-6-6h-89.368c-3.314 0-6 2.686-6 6v18c0 3.314 2.686 6 6 6h57.369c1.105 0 2 .895 2 2v14.998c0 1.105-.897 2.001-2.002 2l-30.824-.049c-1.594-.002-3.123.631-4.25 1.759l-39.286 39.313c-1.124 1.125-1.755 2.65-1.756 4.24l-.009 33.738c-.001 3.314 2.686 6.002 6 6.002h102.259c3.314 0 6-2.686 6-6v-24c0-3.314-2.686-6-6-6h-67.247c-1.782 0-2.674-2.155-1.414-3.415z"/></g></svg>