<svg enable-background="new 0 0 140.281 150.002" height="80.002" viewBox="0 0 140.281 150.002" width="70.281" xmlns="http://www.w3.org/2000/svg"><path d="m113.632 65.153c-.77-.783-.764-2.04.012-2.816l24.863-24.868c1.124-1.124 1.756-2.649 1.757-4.238l.017-27.226c.002-3.315-2.685-6.004-6-6.004h-103.279c-3.314-.001-16.062 12.846-19.423 17.955l14.423 6.044c0 3.314 2.686 6 6 6h66.724c1.782 0 2.674 2.154 1.414 3.414l-15 17c-.375.375-.884.586-1.414.586h-32.724c-3.314 0-16.354 10.653-19.463 16l14.463 6c0 3.314 2.686 6 6 6h32.246c.53 0 1.039.211 1.414.586l15 15c1.26 1.26.368 5.414-1.414 5.414h-77.246c-3.314 0-17.565 10.5-20.359 15.884l14.359 12.116c0 3.314 2.686 6 6 6l100.267 14.259c4.403-1.665 17.751-14.92 17.774-18.218l.226-35.3c.011-1.588-.608-3.115-1.721-4.247z" fill="#00e6b3"/><g fill="#142664"><path d="m125.107 17.437s1.506-1.271 3.518-3.026c1.011-.966 2.227-2.03 3.367-3.161.635-.648 1.312-1.351 1.871-2.066 2.344-2.672 4.225-4.916 4.225-4.916.462-.428.234-1.285-.328-1.879-.638-.662-1.468-.748-1.888-.375 0 0-2.26 1.907-4.863 4.254-.71.581-1.345 1.229-2.022 1.932-1.14 1.131-2.204 2.329-3.14 3.363-1.785 1.956-3.032 3.553-3.032 3.553-.463.428-.234 1.285.328 1.879.714.729 1.62.883 1.964.442z"/><path d="m126.212 108.196s1.506-1.271 3.518-3.026c1.011-.966 2.227-2.03 3.367-3.161.635-.648 1.312-1.351 1.871-2.066 2.344-2.672 4.225-4.916 4.225-4.916.462-.428.234-1.285-.328-1.879-.638-.662-1.468-.748-1.888-.375 0 0-2.26 1.907-4.863 4.254-.71.581-1.345 1.229-2.022 1.932-1.14 1.131-2.204 2.329-3.14 3.363-1.785 1.957-3.032 3.553-3.032 3.553-.463.428-.234 1.285.328 1.879.714.729 1.62.883 1.964.442z"/><path d="m97.63 81.155c-.77-.783-.764-2.04.012-2.816l24.863-24.868c1.124-1.124 1.756-2.649 1.757-4.238l.017-27.226c.002-3.315-2.685-6.004-6-6.004h-102.279c-3.314 0-6 2.686-6 6v18c0 3.314 2.686 6 6 6h66.724c1.782 0 2.674 2.154 1.414 3.414l-15 15c-.375.375-.884.586-1.414.586h-31.724c-3.314 0-6 2.686-6 6v18c0 3.314 2.686 6 6 6h32.246c.53 0 1.039.211 1.414.586l15 15c1.26 1.26.368 3.414-1.414 3.414h-77.246c-3.314 0-6 2.686-6 6v24c0 3.314 2.686 6 6 6h112.041c3.298 0 5.978-2.662 6-5.959l.226-33.3c.011-1.588-.608-3.115-1.721-4.247z"/></g></svg>