<svg enable-background="new 0 0 123.087 150.087" height="80.087" viewBox="0 0 123.087 150.087" width="70.087" xmlns="http://www.w3.org/2000/svg"><path d="m87.087 96v-90c0-3.314-2.686-6-6-6h-28.349c-1.057 0-2.072.419-2.821 1.165l-26.672 26.54c-.581.578-.749 1.456-.426 2.209 1.431 3.343 2.174 4.977 3.624 8.322.317.731 1.04 1.21 1.837 1.21h20.579c1.101 0 1.995.89 2 1.992l.228 54.562c0 1.105-.895 2-2 2h-28c-3.314 0-16.888 13.812-19.993 18.639l14.993 11.361c0 3.314 2.686 6 6 6l83.35 14.115c6.872-5.01 17.65-15.802 17.65-19.115v-25c0-3.314-2.686-6-6-6h-28c-1.104 0-2-.895-2-2z" fill="#00e6b3"/><g fill="#142664"><path d="m71 112.087v-90c0-3.314-2.686-6-6-6h-28.349c-1.057 0-2.072.419-2.821 1.165l-26.673 26.54c-.581.578-.749 1.456-.426 2.209 1.431 3.343 2.174 4.977 3.624 8.322.317.731 1.04 1.21 1.837 1.21h20.579c1.101 0 1.995.89 2 1.992l.229 54.562c0 1.105-.895 2-2 2h-27c-3.314 0-6 2.686-6 6v24c0 3.314 2.686 6 6 6h95c3.314 0 6-2.686 6-6v-24c0-3.314-2.686-6-6-6h-28c-1.105 0-2-.895-2-2z"/><path d="m107.296 116.117s1.578-1.343 3.687-3.194c1.062-1.017 2.336-2.139 3.535-3.329.668-.681 1.381-1.42 1.972-2.168 2.473-2.801 4.46-5.151 4.46-5.151.485-.451.273-1.324-.288-1.919-.637-.662-1.487-.73-1.927-.336 0 0-2.367 2.014-5.098 4.489-.743.614-1.411 1.295-2.124 2.034-1.198 1.189-2.321 2.446-3.307 3.53-1.881 2.053-3.201 3.722-3.201 3.722-.486.451-.273 1.324.288 1.919.714.729 1.639.864 2.003.403z"/><path d="m71.726 18.171s1.578-1.343 3.687-3.194c1.062-1.017 2.336-2.139 3.535-3.329.668-.681 1.381-1.42 1.972-2.168 2.473-2.801 4.46-5.151 4.46-5.151.485-.451.273-1.324-.288-1.919-.637-.662-1.487-.729-1.927-.336 0 0-2.367 2.014-5.098 4.489-.743.614-1.411 1.295-2.124 2.034-1.198 1.189-2.321 2.446-3.307 3.53-1.881 2.053-3.201 3.722-3.201 3.722-.486.451-.273 1.324.288 1.919.714.729 1.639.863 2.003.403z"/></g></svg>