<svg xmlns="http://www.w3.org/2000/svg" width="163.839" height="163.839" fill-rule="evenodd" clip-rule="evenodd" image-rendering="optimizeQuality" shape-rendering="geometricPrecision" text-rendering="geometricPrecision" viewBox="0 0 1707 1707"><defs><linearGradient id="a" x1="730.646" x2="976.016" y1="64.898" y2="1641.76" gradientUnits="userSpaceOnUse"><stop offset="0" stop-color="#1e8ac6"/><stop offset=".302" stop-color="#834fbc"/><stop offset="1" stop-color="#e813b1"/></linearGradient></defs><path fill="url(#a)" fill-rule="nonzero" d="M20 108l1667 0c11,0 20,9 20,20l0 1127c0,11 -9,20 -20,20l-718 0 0 191 147 0c58,0 89,71 47,113 -12,12 -29,19 -47,19l-526 0c-57,0 -88,-70 -46,-112l0 0c12,-12 28,-20 46,-20l147 0 0 -191 -717 0c-11,0 -20,-9 -20,-20l0 -1127c0,-11 9,-20 20,-20zm1034 161c29,0 53,24 53,53l0 14 477 0c27,0 27,40 0,40l-477 0c0,20 1,35 -15,51 -34,34 -91,9 -91,-37l0 -14 -146 0c-26,0 -26,-40 0,-40l146 0c0,-20 -1,-35 16,-51 9,-10 23,-16 37,-16zm0 40c-18,0 -13,26 -13,47 0,22 -5,47 13,47 18,0 13,-26 13,-47 0,-22 5,-47 -13,-47zm182 197c29,0 53,24 53,53l0 14 295 0c27,0 27,40 0,40l-295 0c0,20 1,35 -15,51 -34,34 -91,9 -91,-37l0 -14 -328 0c-26,0 -26,-40 0,-40l328 0c0,-20 0,-35 16,-51 10,-10 23,-16 37,-16zm0 40c-18,0 -13,26 -13,47 0,22 -5,47 13,47 18,0 13,-26 13,-47 0,-22 5,-47 -13,-47zm197 197c29,0 53,24 53,53l0 14 98 0c27,0 27,40 0,40l-98 0c0,20 0,35 -16,51 -34,34 -90,10 -90,-37l0 -14 -525 0c-26,0 -26,-40 0,-40l525 0c0,-20 -1,-35 15,-51 10,-10 23,-16 38,-16zm0 40c-18,0 -13,26 -13,47 0,22 -5,47 13,47 18,0 13,-25 13,-47 0,-22 5,-47 -13,-47zm-849 18l148 0c11,0 20,9 20,20l0 147c0,11 -9,20 -20,20l-148 0c-11,0 -20,-9 -20,-20l0 -147c0,-11 9,-20 20,-20zm128 40l-108 0 0 107 108 0 0 -107zm-359 -40l148 0c11,0 20,9 20,20l0 147c0,11 -9,20 -20,20l-148 0c-11,0 -20,-9 -20,-20l0 -147c0,-11 9,-20 20,-20zm128 40l-108 0 0 107 108 0 0 -107zm-359 -40l148 0c11,0 20,9 20,20l0 147c0,11 -9,20 -20,20l-148 0c-11,0 -20,-9 -20,-20l0 -147c0,-11 9,-20 20,-20zm128 40l-108 0 0 107 108 0 0 -107zm44 -476l0 225c0,5 1,10 4,13l0 0c7,13 23,18 37,10l195 -112 0 0 10 -10 0 0c7,-12 3,-30 -10,-38l-195 -112c-19,-11 -40,3 -41,24l0 0zm-40 225l0 -225 0 0c0,-51 55,-85 101,-59l195 113c32,19 43,60 24,92l0 0c-6,10 -14,18 -24,24l0 0 -195 113c-33,19 -73,7 -92,-25l0 0 -9 -33zm325 -310c176,175 50,476 -197,476 -248,0 -374,-301 -198,-476 109,-110 286,-110 395,0zm42 197c0,-213 -258,-319 -409,-169 -150,150 -43,408 170,408 132,0 239,-107 239,-239zm139 699c-26,0 -26,-40 0,-40l186 0c27,0 27,40 0,40l-186 0zm-720 -138l1627 0 0 -890 -1627 0 0 890zm1627 40l-1627 0 0 157 1627 0 0 -157zm-718 428l-359 0c-7,0 -13,3 -18,8l0 0c-16,16 -5,44 18,44l526 0c35,0 35,-52 0,-52l-167 0zm-20 -231l-152 0 0 191 152 0 0 -191z"/></svg>